<svg xmlns="http://www.w3.org/2000/svg" width="18" height="18" fill="none"><path stroke="#151515" stroke-linecap="round" stroke-linejoin="round" stroke-width="1.5" d="M6.285 6.64A10.952 10.952 0 0 0 8.42 9.647a10.95 10.95 0 0 0 3.007 2.135c.094.045.14.068.2.085.21.061.468.017.646-.11a1.51 1.51 0 0 0 .179-.165c.262-.262.393-.393.525-.479a1.5 1.5 0 0 1 1.636 0c.131.086.262.217.525.479l.146.146c.398.399.598.598.706.812a1.5 1.5 0 0 1 0 1.354c-.108.214-.308.414-.706.812l-.119.118c-.397.398-.595.596-.865.748-.3.168-.765.29-1.109.288-.31 0-.521-.06-.945-.181a14.278 14.278 0 0 1-6.213-3.655A14.279 14.279 0 0 1 2.379 5.82c-.12-.423-.18-.635-.18-.945-.002-.343.12-.809.288-1.108.151-.27.35-.469.747-.866l.118-.118c.399-.399.598-.598.812-.707a1.5 1.5 0 0 1 1.354 0c.214.109.414.308.812.707l.146.146c.263.262.394.393.48.525a1.5 1.5 0 0 1 0 1.635c-.086.132-.217.263-.48.525-.085.086-.128.129-.164.179a.785.785 0 0 0-.11.647c.017.059.04.106.084.199Z"/></svg>