<svg xmlns="http://www.w3.org/2000/svg" width="18" height="19" fill="none"><path fill="#000" fill-opacity=".6" d="m17.662 14.856-3.837-3.59h.815a.917.917 0 0 0 .431-.105.749.749 0 0 0 .302-.286.611.611 0 0 0 .077-.378.647.647 0 0 0-.167-.355l-2.876-3.22h.815a.92.92 0 0 0 .42-.1.758.758 0 0 0 .3-.27.617.617 0 0 0-.044-.72L9.612.31A.785.785 0 0 0 9.32.082a.925.925 0 0 0-.766 0 .785.785 0 0 0-.293.227L3.934 5.833a.617.617 0 0 0-.044.72c.069.11.173.205.3.27a.92.92 0 0 0 .42.1h.855L2.59 10.141a.612.612 0 0 0-.09.733.75.75 0 0 0 .302.286c.13.069.28.105.432.105h.815L.21 14.856a.663.663 0 0 0-.199.352.607.607 0 0 0 .054.39c.06.122.161.227.29.302a.91.91 0 0 0 .434.122H8.12v2.835h1.63v-2.835h7.333c.157 0 .311-.04.443-.114a.74.74 0 0 0 .3-.302.608.608 0 0 0 .06-.393.662.662 0 0 0-.2-.357h-.025Zm-15.007-.23 3.837-3.59a.665.665 0 0 0 .202-.355.608.608 0 0 0-.055-.393.74.74 0 0 0-.302-.305.916.916 0 0 0-.448-.114H4.862L7.74 6.65a.613.613 0 0 0 .086-.734.75.75 0 0 0-.3-.283.917.917 0 0 0-.43-.106h-.978l2.82-3.576 2.794 3.576h-.978c-.152 0-.3.037-.43.106a.75.75 0 0 0-.3.284.613.613 0 0 0 .087.734l2.9 3.22H12a.916.916 0 0 0-.448.113.74.74 0 0 0-.302.305.609.609 0 0 0-.063.39c.023.133.09.257.194.358l3.82 3.59H2.656Z"/></svg>